#!OML:ASF F:\VICON\USERDATA\INSTALL\Justin_Nancy\Justin_Nancy.ASF
:FULLY-SPECIFIED
:DEGREES
270
root 0.4974 17.4897 -1.92004 1.47279 1.37855 -0.0845784
lowerback 1.31636 -0.887472 -1.10823
upperback -1.29559 -1.15681 2.85768
thorax -1.98743 -0.540397 3.59665
lowerneck -15.017 -6.43556 -11.4451
upperneck 19.0788 -7.93287 8.07482
head 9.271 -3.72747 3.64644
rclavicle -8.13775e-016 -1.27222e-014
rhumerus -38.8982 -22.0205 -73.4177
rradius 23.8946
rwrist 13.1719
rhand -16.3223 17.1187
rfingers 7.12502
rthumb 9.88921 -12.629
lclavicle -8.13775e-016 -1.27222e-014
lhumerus -28.9252 5.54641 87.9986
lradius 31.6357
lwrist -5.42655
lhand -14.6184 28.7342
lfingers 7.12502
lthumb 11.5327 58.3969
rfemur -9.05695 6.56746 25.0855
rtibia 29.7407
rfoot -16.6571 -9.79432
rtoes 2.54459
lfemur -11.5119 -3.36256 -22.3181
ltibia 31.7716
lfoot -17.8326 5.81068
ltoes 4.61243
271
root 0.499282 17.4895 -1.91537 1.49255 1.33544 -0.0839037
lowerback 1.31653 -0.976131 -1.13409
upperback -1.29786 -1.27474 2.91986
thorax -1.97973 -0.5987 3.679
lowerneck -15.1111 -6.36087 -11.4213
upperneck 19.1901 -7.80805 7.97722
head 9.30805 -3.67571 3.62524
rclavicle 1.52257e-014 6.36111e-015
rhumerus -39.1032 -21.6712 -73.362
rradius 24.0919
rwrist 12.6528
rhand -16.1973 17.7058
rfingers 7.12502
rthumb 10.0098 -12.0361
lclavicle 1.52257e-014 6.36111e-015
lhumerus -28.836 6.04519 87.8522
lradius 31.3198
lwrist -6.32915
lhand -13.5036 29.9503
lfingers 7.12502
lthumb 12.6077 59.5499
rfemur -9.08146 6.56976 25.0718
rtibia 29.7463
rfoot -16.6928 -9.72792
rtoes 2.62868
lfemur -11.5247 -3.3614 -22.328
ltibia 31.772
lfoot -17.7947 5.88418
ltoes 4.74081
272
root 0.498803 17.4889 -1.90909 1.52645 1.27429 -0.0057535
lowerback 1.35457 -1.03669 -1.23719
upperback -1.28154 -1.35811 2.93009
thorax -1.97583 -0.639139 3.75075
lowerneck -15.6041 -6.34394 -11.3861
upperneck 19.6246 -7.76229 7.97026
head 9.54333 -3.64185 3.61802
rclavicle -5.18083e-015 1.90833e-014
rhumerus -39.2244 -21.4253 -73.3755
rradius 24.3899
rwrist 12.2529
rhand -15.936 17.3349
rfingers 7.12502
rthumb 10.2619 -12.3948
lclavicle -5.18083e-015 1.90833e-014
lhumerus -28.864 6.23556 87.7938
lradius 31.2382
lwrist -6.52247
lhand -13.4332 29.8848
lfingers 7.12502
lthumb 12.6756 59.4802
rfemur -9.09149 6.62563 24.9849
rtibia 29.7383
rfoot -16.7507 -9.76036
rtoes 2.34271
lfemur -11.5268 -3.42556 -22.4246
ltibia 31.7786
lfoot -17.7942 5.96239
ltoes 4.84012
273
root 0.498544 17.4915 -1.90143 1.53669 1.2317 -0.00669691
lowerback 1.45738 -1.08247 -1.24622
upperback -1.32023 -1.41841 2.94166
thorax -2.06852 -0.667356 3.77272
lowerneck -15.6528 -6.33534 -11.398
upperneck 19.7443 -7.76352 8.02864
head 9.59727 -3.63652 3.64081
rclavicle -1.22687e-014 -1.35174e-014
rhumerus -39.457 -21.1586 -73.3915
rradius 24.6792
rwrist 11.8521
rhand -15.933 16.8991
rfingers 7.12502
rthumb 10.2648 -12.8304
lclavicle -1.22687e-014 -1.35174e-014
lhumerus -29.0692 6.0516 87.8856
lradius 31.1886
lwrist -5.6895
lhand -14.2917 28.7051
lfingers 7.12502
lthumb 11.8479 58.3499
rfemur -9.06226 6.66605 24.986
rtibia 29.6987
rfoot -16.761 -9.81619
rtoes 1.89309
lfemur -11.4985 -3.45864 -22.4368
ltibia 31.8031
lfoot -17.8857 6.05499
ltoes 5.03694
274
root 0.498896 17.492 -1.89667 1.57444 1.29418 -0.0426821
lowerback 1.48195 -1.15527 -1.20181
upperback -1.33848 -1.5139 2.95645
thorax -2.09475 -0.715122 3.76671
lowerneck -15.7146 -6.32427 -11.4478
upperneck 19.7789 -7.7581 8.14495
head 9.62733 -3.62411 3.69026
rclavicle 2.02201e-015 3.02153e-014
rhumerus -39.5661 -21.2425 -73.2099
rradius 24.5902
rwrist 11.8203
rhand -16.1302 16.1461
rfingers 7.12502
rthumb 10.0745 -13.5927
lclavicle 2.02201e-015 3.02153e-014
lhumerus -29.1656 5.82957 87.9794
lradius 30.8713
lwrist -4.81736
lhand -15.1967 26.1932
lfingers 7.12502
lthumb 10.975 55.8863
rfemur -9.06073 6.57083 25.019
rtibia 29.6583
rfoot -16.7002 -9.73892
rtoes 2.17159
lfemur -11.5201 -3.55503 -22.3994
ltibia 31.8311
lfoot -17.9034 6.13235
ltoes 4.88933
275
root 0.500154 17.4921 -1.89254 1.63454 1.27603 -0.155665
lowerback 1.39625 -1.21973 -1.02873
upperback -1.33335 -1.59599 2.96498
thorax -2.03949 -0.759545 3.6777
lowerneck -15.7242 -6.27486 -11.5148
upperneck 19.7835 -7.71849 8.34516
head 9.63754 -3.58957 3.77829
rclavicle 8.46698e-015 3.97569e-015
rhumerus -39.595 -21.4178 -72.9982
rradius 24.3103
rwrist 11.7924
rhand -16.2905 15.1056
rfingers 7.12502
rthumb 9.91991 -14.6407
lclavicle 8.46698e-015 3.97569e-015
lhumerus -29.1276 5.84458 87.9047
lradius 30.7875
lwrist -5.56936
lhand -15.0205 28.1382
lfingers 7.12502
lthumb 11.145 57.8222
rfemur -9.08593 6.48842 25.1266
rtibia 29.6231
rfoot -16.6158 -9.59742
rtoes 2.77334
lfemur -11.5774 -3.53052 -22.2719
ltibia 31.844
lfoot -17.9176 6.07015
ltoes 5.17735
276
root 0.499976 17.4929 -1.89105 1.71895 1.18418 -0.191045
lowerback 1.21179 -1.26512 -0.967796
upperback -1.29979 -1.65699 2.95648
thorax -1.89881 -0.793243 3.63035
lowerneck -15.5833 -6.24949 -11.4432
upperneck 19.6473 -7.70885 8.34528
head 9.55937 -3.58303 3.76904
rclavicle -1.02312e-014 -3.18055e-015
rhumerus -39.6676 -21.3314 -72.9363
rradius 24.3745
rwrist 11.4308
rhand -16.3499 14.6794
rfingers 7.12502
rthumb 9.86257 -15.0696
lclavicle -1.02312e-014 -3.18055e-015
lhumerus -28.9656 5.84382 87.8245
lradius 30.4147
lwrist -5.87355
lhand -15.5333 28.4567
lfingers 7.12502
lthumb 10.6504 58.1668
rfemur -9.16552 6.5807 25.1631
rtibia 29.6016
rfoot -16.6032 -9.59539
rtoes 2.76779
lfemur -11.6915 -3.55175 -22.2372
ltibia 31.8517
lfoot -17.7865 6.183
ltoes 5.10127
